<svg xmlns="http://www.w3.org/2000/svg" viewBox="0 0 185.56 123.59">
  <defs>
    <style>
      .ad172d45-55ed-4f4e-87b4-97e58f0eadfd {
        isolation: isolate;
      }

      .b637837d-0088-4a84-9f9c-4f394cddb3e7, .b69227a9-f7c7-4e84-9e5a-ff4cf8468040 {
        fill: #231f20;
      }

      .b69227a9-f7c7-4e84-9e5a-ff4cf8468040, .f8ebf73d-8513-4f2d-b23a-28b4d337fbb0 {
        opacity: 0.31;
      }

      .b69227a9-f7c7-4e84-9e5a-ff4cf8468040, .b8f56506-a772-4de4-ad36-f1f0da51cf6c {
        mix-blend-mode: multiply;
      }

      .abd07957-8eaf-4e33-84f1-a8bc998083a4 {
        fill: #f26161;
      }

      .fd36782c-f3ed-4251-9b40-2ccd3dc4449f {
        fill: #ed2f2f;
      }

      .addbe1ba-130c-4ed5-98ab-8cf969eafaff {
        fill: #546472;
      }

      .e51486cc-083c-4bb8-800d-adf241557f2f {
        fill: #cbcbcb;
      }

      .b79cebd3-31dd-470e-9ebe-f3bc0808e15e {
        fill: #878787;
      }

      .b4e154a9-3e50-446d-9c6b-f1e54f8f3c96 {
        fill: #fff;
      }

      .b8f56506-a772-4de4-ad36-f1f0da51cf6c {
        opacity: 0.15;
      }

      .ac1da023-4d87-4b7b-8cb6-08200ab33a76 {
        fill: #6e7f89;
      }

      .bf5d40a4-2dae-40f9-b8ee-7d61eabca1da {
        fill: #ba1c1c;
      }

      .b9de1d1a-57d4-4e57-980a-30961b12f53d {
        fill: #f45151;
      }
    </style>
  </defs>
  <g class="ad172d45-55ed-4f4e-87b4-97e58f0eadfd">
    <g id="a69a5b11-19bf-4951-a70a-4e977404384a" data-name="Capa 2">
      <g id="bdd3afad-679e-4c7a-85fc-40ff9135f205" data-name="graphics">
        <g>
          <path class="b69227a9-f7c7-4e84-9e5a-ff4cf8468040" d="M22.13,30.77S2,38.7.43,43.28C-.82,46.84.37,52.84,8,58.63c4.3,3.27,93.27,53.92,93.27,53.92s27.43,18.36,48.77,7.73c4.19-2.09,25-12.4,30.48-17.38,6.47-5.84,9.36-17.11-7.93-30.25S22.13,30.77,22.13,30.77Z"/>
          <path class="abd07957-8eaf-4e33-84f1-a8bc998083a4" d="M143.28,37.63s5.57-5.84,7.43-5,1.48,2.93,1.26,4.06c-.48,2.47-3.84,8.23-3.84,8.23s-2.13-.2-3.87-3.16S143.28,37.63,143.28,37.63Z"/>
          <path class="fd36782c-f3ed-4251-9b40-2ccd3dc4449f" d="M173.51,58.7s-30.41-26.64-43.93-36C109.51,8.77,92.33,4.44,85.27,3.14a37.25,37.25,0,0,0-12.73-.46,14.32,14.32,0,0,1-2.53,0S58-2.61,47.65,1.7c-7.17,3-21.84,9.47-26.09,11.65C12.18,18.16,12.37,23.88,12.37,27V37.16s-1,12.67,10.14,20.27C29.8,62.4,93.19,100,93.19,100s21.57,11.15,30.15,13.17,19.68,3.9,30.4-.76c5.83-2.53,18.59-8.49,26.67-18.75C185.74,86.89,183.13,66.05,173.51,58.7Z"/>
          <path class="addbe1ba-130c-4ed5-98ab-8cf969eafaff" d="M127,21.84s-5.63,4.05-17.92,10A269.37,269.37,0,0,1,83.38,42.1,244.78,244.78,0,0,1,101.3,64.78c3.94,5.6,10.22,5,14.19,4,6.33-1.52,17.31-7.35,25.33-11.9,17-9.63,13.24-13.56,13.24-13.56s-7.57-6.71-12.51-10.61C134.27,27,129.89,23.64,127,21.84Z"/>
          <g>
            <path class="addbe1ba-130c-4ed5-98ab-8cf969eafaff" d="M94.71,68.68a76.15,76.15,0,0,0-14.07-22A49,49,0,0,0,71.2,38.1,53.35,53.35,0,0,0,64.73,34a50.73,50.73,0,0,0-2.42,9.75,68.85,68.85,0,0,0-.57,9.12l32,17.77S95.74,71.21,94.71,68.68Z"/>
            <path class="addbe1ba-130c-4ed5-98ab-8cf969eafaff" d="M58.23,43.21a50.62,50.62,0,0,1,3-10.83A64.33,64.33,0,0,0,54,29.22c-3.29-1-8-2.35-13.78-.54-6.09,1.91-6.27,3.51-6.46,5a3.44,3.44,0,0,0,.76,2.95l22.8,14C57.47,49.29,57.73,46.15,58.23,43.21Z"/>
          </g>
          <path class="addbe1ba-130c-4ed5-98ab-8cf969eafaff" d="M36.57,19.75c5.34,0,6.27.38,6.27.38a140,140,0,0,1,14.91-8.65C71.94,4.64,81.63,3.32,84.51,3.13A38.87,38.87,0,0,0,74.27,2.3c-3.72.1-7.12.65-9,.85A48.42,48.42,0,0,0,55,5.59C41.89,10.35,21.56,21.27,21.56,21.27A82.09,82.09,0,0,1,36.57,19.75Z"/>
          <path class="e51486cc-083c-4bb8-800d-adf241557f2f" d="M178.18,64.11s2.06,3,.8,9.79c-.13.72.62,2.09,1.48,4.37.48,1.28,1.64-1.57,1.52-3.85A24.71,24.71,0,0,0,178.18,64.11Z"/>
          <path class="e51486cc-083c-4bb8-800d-adf241557f2f" d="M148.91,92.64A181.28,181.28,0,0,1,129.61,90l-8.91-1.87s-1.77,0-.69,3.81,1.71,6,7,7c6.36,1.15,16,.73,16,.73s4.55-.84,5.28-2.88A13,13,0,0,0,148.91,92.64Z"/>
          <path class="addbe1ba-130c-4ed5-98ab-8cf969eafaff" d="M177.89,78.22c-.29.44-1.71,2.47-10.37,8a87.21,87.21,0,0,1-11.69,6.08l.19,5.37a58.59,58.59,0,0,0,13.32-7.26c9.28-6.6,9.36-7.6,9.36-7.6a9,9,0,0,0-.24-2.18A15.87,15.87,0,0,0,177.89,78.22Z"/>
          <path class="addbe1ba-130c-4ed5-98ab-8cf969eafaff" d="M179.79,87.11s-2.08,3.44-10.32,9.12a85.54,85.54,0,0,1-12.61,6.9l.18,4.72a89,89,0,0,0,11.53-6.52c8.48-5.45,11.17-9.62,11.7-10.66A22.58,22.58,0,0,0,179.79,87.11Z"/>
          <path class="addbe1ba-130c-4ed5-98ab-8cf969eafaff" d="M131.78,106.26s6.84,1.68,11.21,2.35a18,18,0,0,1,4.22.94c1.39.49,1.3,1.8.41,2.13-5.07,1.87-12.36,1-14.37.89-2.18-.16-2.53-1.62-2.53-1.62s-.46-1.07-1-2.84C129.19,106.6,130.26,106,131.78,106.26Z"/>
          <path class="b79cebd3-31dd-470e-9ebe-f3bc0808e15e" d="M128.41,94.15a6.48,6.48,0,0,0,2.87,5.25c2.34.19,4.75.25,6.76.27a6.46,6.46,0,0,0,3.29-5.75,6.29,6.29,0,0,0-.4-2.13c-3.36-.43-7.35-1-11.1-1.8A6.51,6.51,0,0,0,128.41,94.15Z"/>
          <path class="b4e154a9-3e50-446d-9c6b-f1e54f8f3c96" d="M131.48,94.38a4.15,4.15,0,0,0,1.84,3.38c1.51.13,3.06.17,4.36.18a4.16,4.16,0,0,0,2.12-3.71,4.11,4.11,0,0,0-.26-1.36c-2.16-.28-4.74-.66-7.15-1.16A4.15,4.15,0,0,0,131.48,94.38Z"/>
          <path class="addbe1ba-130c-4ed5-98ab-8cf969eafaff" d="M84.45,43.25A83.84,83.84,0,0,0,59.94,25.64C47,19.56,37.26,19.56,34.48,19.56s-12.92,1.71-12.92,1.71L27.64,19a51.29,51.29,0,0,1,21.85,1.14A82.2,82.2,0,0,1,78,35c8.89,7.24,7.6,7.79,7.6,7.79Z"/>
          <path class="addbe1ba-130c-4ed5-98ab-8cf969eafaff" d="M126.92,23s-7.79-6.65-24.32-13.4C92.91,5.63,83.8,3.41,81.13,3.31a20.6,20.6,0,0,0-3.81.1l5-.67A53.44,53.44,0,0,1,90,4.45a143.2,143.2,0,0,1,31.16,13.49c2.81,1.7,5.89,3.9,5.89,3.9Z"/>
          <g class="b8f56506-a772-4de4-ad36-f1f0da51cf6c">
            <path class="b637837d-0088-4a84-9f9c-4f394cddb3e7" d="M153.74,112.41c5.83-2.53,20.64-10.2,26.67-18.75,2.22-3.14,3.26-8.76,2.55-15-.27,3.36-2.34,5.76-4.83,8.11-17.61,16.66-34.58,16.34-41,16.34s-16.72-3.42-16.72-3.42-5.75-9.06-11.79-13.68C98.89,78.65,93,79.6,93,79.6S19.46,33.71,14.62,27.73a9.85,9.85,0,0,1-2-4.09c-.12.67-.26,2.82-.26,3.39V37.16s-1,12.67,10.14,20.27C24.86,59,33.07,64.05,43.11,70.1c21,12.67,50.08,29.9,50.08,29.9s20.68,11,29.26,13S143,117.07,153.74,112.41Z"/>
          </g>
          <g class="b8f56506-a772-4de4-ad36-f1f0da51cf6c">
            <path class="b637837d-0088-4a84-9f9c-4f394cddb3e7" d="M177.33,62.78c1.16,2.93,2,8.2-.78,12l-.14.18c-2.85,3.74-8.84,8.39-19.31,13.37a29.67,29.67,0,0,1-8.82,2.51c-.75.11-1.51.19-2.26.26-12.42,1-25.32-3-25.32-3S133.46,98,136.07,99a19.7,19.7,0,0,0,5.45.76A39.58,39.58,0,0,0,156,97.59c8.38-2.75,19.69-11.66,22.62-14.7a13.32,13.32,0,0,0,3.88-7.07A34.33,34.33,0,0,0,177.33,62.78Z"/>
          </g>
          <g>
            <path class="b637837d-0088-4a84-9f9c-4f394cddb3e7" d="M42.51,66.13c-.95-4.31-2-7.62-6-13.62-5-7.56-10.57-9.81-14.58-7.62s-2.37,8.84-2.37,8.84L20,55.46c3.09,2.2,15.81,11.19,23.11,14.64A33.75,33.75,0,0,0,42.51,66.13Z"/>
            <path class="addbe1ba-130c-4ed5-98ab-8cf969eafaff" d="M29.58,45.55A5.26,5.26,0,0,0,23.67,47c-3.06,3.19-3.27,8.16-1.43,13.57a22.17,22.17,0,0,0,8.43,11.45,9.85,9.85,0,0,0,7.73,1.29c2.51-.39,4.71-3.25,4.71-3.25a35.51,35.51,0,0,0-7.68-19.31A22.93,22.93,0,0,0,29.58,45.55Z"/>
            <path class="e51486cc-083c-4bb8-800d-adf241557f2f" d="M31.58,51.71c3.12,2.52,5.71,9.17,6.08,12.38s-.62,5.38-2.8,6.32-6.7-1.15-9.3-5.54a20.1,20.1,0,0,1-2.64-11C23,51.55,25.46,46.77,31.58,51.71Z"/>
            <path class="addbe1ba-130c-4ed5-98ab-8cf969eafaff" d="M30.06,59.73c.27.77.09,1.53-.4,1.7s-1.11-.31-1.38-1.08-.09-1.53.4-1.7S29.79,59,30.06,59.73Z"/>
          </g>
          <g>
            <path class="b637837d-0088-4a84-9f9c-4f394cddb3e7" d="M121.07,108.64c-1.68-4.42-3.33-7.77-8.51-13.52-6.52-7.23-14.72-8.87-17.25-6.3-3.31,3.36-1,10.81-1,10.81l.47,1.23c3.63,1.85,19.35,9.62,27.64,12.14A40.35,40.35,0,0,0,121.07,108.64Z"/>
            <path class="addbe1ba-130c-4ed5-98ab-8cf969eafaff" d="M103.93,88.91s-3.33-1.14-5.85,2.41c-2.75,3.88-2.2,9.18.6,14.64a23.73,23.73,0,0,0,10.75,10.83,10.48,10.48,0,0,0,8.41.17,8.82,8.82,0,0,0,4.61-4s-2.27-11.55-11.3-19.53A22.2,22.2,0,0,0,103.93,88.91Z"/>
            <path class="e51486cc-083c-4bb8-800d-adf241557f2f" d="M107.21,95.05c3.71,2.19,7.5,8.84,8.39,12.19s.77,6.23-1.39,7.58-7.88-.6-11.34-4.86S98,100.68,98,98.39,99.93,90.77,107.21,95.05Z"/>
            <path class="addbe1ba-130c-4ed5-98ab-8cf969eafaff" d="M106.85,103.8c.41.77.34,1.61-.16,1.87s-1.22-.15-1.63-.93-.34-1.61.16-1.87S106.45,103,106.85,103.8Z"/>
          </g>
          <g class="f8ebf73d-8513-4f2d-b23a-28b4d337fbb0">
            <path class="b637837d-0088-4a84-9f9c-4f394cddb3e7" d="M86.5,51.18A79.89,79.89,0,0,0,61.75,29.94C59.38,28.69,50.94,24.73,42,26.21c-8.09,1.34-12.33,6.27-12.65,9.19a60.1,60.1,0,0,0-.1,7.27c.2,1.22,1.5,2.19,2.55,3a23.91,23.91,0,0,1,7.08,7.65,40.94,40.94,0,0,1,4.84,13.9,28.5,28.5,0,0,1,.43,3.53l.37.23a22.14,22.14,0,0,0-.43-3.82,41,41,0,0,0-4.89-14A24.46,24.46,0,0,0,32,45.34c-1-.74-2.23-1.66-2.4-2.73a60.37,60.37,0,0,1,.09-7.17c.32-2.91,4.79-7.61,12.34-8.86,8.82-1.45,17.17,2.46,19.52,3.69A79.6,79.6,0,0,1,86.2,51.4c8.33,11.14,10.59,20.18,10.61,20.26.23,1.12-.5,2-1.42,3.11a12.15,12.15,0,0,0-2.43,4C90.51,86.22,91.1,95.06,91.54,99l.41.24c-.45-3.76-1.12-12.8,1.37-20.36A11.81,11.81,0,0,1,95.68,75c.95-1.14,1.77-2.13,1.5-3.43C97.15,71.49,94.88,62.38,86.5,51.18Z"/>
          </g>
          <g class="f8ebf73d-8513-4f2d-b23a-28b4d337fbb0">
            <path class="b637837d-0088-4a84-9f9c-4f394cddb3e7" d="M57.82,59.08a17.56,17.56,0,0,1,1.5-6l0-.07a89.39,89.39,0,0,1,1.51-12.89,50.13,50.13,0,0,1,2.74-8.81l-.35-.16A51.43,51.43,0,0,0,60.48,40,89.47,89.47,0,0,0,59,53a17.26,17.26,0,0,0-1.52,6.12v.45c0,9.17,1,16.24,3.15,21.06l.59.34c-2.27-4.77-3.4-12-3.36-21.39Z"/>
          </g>
          <g class="b8f56506-a772-4de4-ad36-f1f0da51cf6c">
            <path class="b637837d-0088-4a84-9f9c-4f394cddb3e7" d="M155.83,88.9A52.84,52.84,0,0,1,141,87.58c-15.47-3.46-28.25-10-34.42-14.91-5.47-4.38-8.56-9.17-14.92-17S70,23.36,38.47,23.36c-4.94,0-18.22,2.9-16.34,7.41,0,0,1.71,2.66,17.29,12.39C49.58,49.5,89.84,71.69,91.86,73c10.64,6.65,30.32,16,32.87,16A106.6,106.6,0,0,1,115,83.5c-8.08-5.13-9.6-7.5-9.12-8a227.26,227.26,0,0,0,24,11.4c9.24,3.64,15.95,4.19,16.52,4.15A31.93,31.93,0,0,0,155.83,88.9Z"/>
          </g>
          <g class="b8f56506-a772-4de4-ad36-f1f0da51cf6c">
            <path class="b637837d-0088-4a84-9f9c-4f394cddb3e7" d="M174.46,61.61c-1.81-2.48-3.94-5-5.82-7.08l-6.83-5.83c1.19,1.13,9.59,9.22,12.39,15.57,3.8,8.62-.76,13.81-.76,13.81a19.74,19.74,0,0,0,3.11-3.29C178.6,71.54,177.6,66,174.46,61.61Z"/>
          </g>
          <path class="fd36782c-f3ed-4251-9b40-2ccd3dc4449f" d="M64.72,65.27c0,.68-1,.26-1.54-.07L61,63.86a3,3,0,0,1-1.25-1.7c-.22-1,1-.35,1.49,0l2.08,1.32c.53.33,1.35,1,1.38,1.51Z"/>
          <path class="fd36782c-f3ed-4251-9b40-2ccd3dc4449f" d="M39.88,48.28c0,.67-1,.26-1.53-.07l-2.17-1.34a3,3,0,0,1-1.25-1.7c-.23-1.06,1-.35,1.48,0l2.09,1.32c.53.33,1.35,1,1.38,1.5Z"/>
          <path class="ac1da023-4d87-4b7b-8cb6-08200ab33a76" d="M86.12,66l3.24,0a17.59,17.59,0,0,0,.28-2c.09-1.61.46-4.65,1-3.61a75.91,75.91,0,0,1,3.7,7.4c1.34,3.12.37,3.26-1.52,2.58a27.82,27.82,0,0,1-2.56-1.24L85.74,69Z"/>
          <path class="bf5d40a4-2dae-40f9-b8ee-7d61eabca1da" d="M83.27,62.49s-8.86,3.26-8.86,5.29,2.78,2,4,2.27c2.78.56,10.23-.06,10.23-.06s2.21-.19-.86-5C85.46,61.25,83.27,62.49,83.27,62.49Z"/>
          <path class="b9de1d1a-57d4-4e57-980a-30961b12f53d" d="M87.83,65c-2.37-3.74-4.56-2.5-4.56-2.5S76.33,65,74.73,67c.51,1.63,3,1.32,4.24,1.4,2.62.18,9.08-1.15,10-1.35A15.89,15.89,0,0,0,87.83,65Z"/>
        </g>
      </g>
    </g>
  </g>
</svg>
